<svg xmlns="http://www.w3.org/2000/svg" viewBox="0 0 64 64" role="img" aria-label="Wooden chess knight">
  <defs>
    <linearGradient id="wood" x1="17" y1="9" x2="48" y2="56" gradientUnits="userSpaceOnUse">
      <stop offset="0" stop-color="#9b5b2e"/>
      <stop offset="0.38" stop-color="#6f3b1f"/>
      <stop offset="0.7" stop-color="#4a2617"/>
      <stop offset="1" stop-color="#2c1710"/>
    </linearGradient>
    <linearGradient id="edge" x1="18" y1="18" x2="45" y2="48" gradientUnits="userSpaceOnUse">
      <stop offset="0" stop-color="#f0c15a" stop-opacity=".72"/>
      <stop offset=".42" stop-color="#c88941" stop-opacity=".36"/>
      <stop offset="1" stop-color="#1b0f0a" stop-opacity=".2"/>
    </linearGradient>
    <radialGradient id="glow" cx="32" cy="27" r="33" gradientUnits="userSpaceOnUse">
      <stop offset="0" stop-color="#2a1b14"/>
      <stop offset="1" stop-color="#08090d"/>
    </radialGradient>
    <filter id="shadow" x="-20%" y="-20%" width="140%" height="145%">
      <feDropShadow dx="0" dy="3" stdDeviation="2" flood-color="#000" flood-opacity=".55"/>
    </filter>
  </defs>

  <rect width="64" height="64" rx="14" fill="url(#glow)"/>

  <g filter="url(#shadow)">
    <path
      fill="url(#wood)"
      d="M18.2 54.8c0-2 1.6-3.6 3.8-3.6h1.7c.6-4.9 2.5-8.5 5.8-10.9-1.9-1.3-3.1-3.2-3.5-5.6-.7-4.6 1.8-9.3 7.5-14.1l-2.1-7.8c-.2-.8 0-1.5.7-1.9.6-.5 1.4-.4 2.1.1l6.7 5.1c4.3.1 7.6 1.5 9.8 4.1 2.1 2.6 2.8 5.8 2.1 9.5-.7 3.7-2.5 6.6-5.3 8.7-2.1 1.6-4.9 2.6-8.3 3.1l-5.4.8c-1.2.2-2 .7-2.3 1.5-.3.8 0 1.6.7 2.2.7.6 1.7.9 3.1.9h6.2c2 0 3.6 1.5 3.7 3.7h1.7c2.2 0 3.8 1.6 3.8 3.6 0 2.1-1.6 3.7-3.8 3.7H22c-2.2 0-3.8-1.4-3.8-3.1Z"
    />
    <path
      fill="#1a0e09"
      opacity=".65"
      d="M35.6 18.9c4.5.6 7.5 2 9.1 4.3 1.5 2.2 1.7 4.8.6 7.7-.9 2.5-2.9 4.3-6.1 5.4l-6.2 2.2c1.1-1.4 1.4-2.9.8-4.5-.6-1.5-1.9-2.7-3.9-3.6.4-2.8 2.3-5.8 5.8-9.1l-.1-2.4Z"
    />
    <path
      fill="#f1c27a"
      opacity=".72"
      d="M35.4 16.4l3.5 2.8c-3.9 2.7-6.4 5.7-7.7 8.9-.6 1.6-.9 3.2-.8 4.7-1.4-1.3-2.1-3-2-5.1.1-3.9 2.8-7.6 8.1-11l-1.1-.3Z"
    />
    <path
      fill="url(#edge)"
      d="M24.6 51.2h20.5c-.3-1.2-1.2-1.8-2.8-1.8h-7.1c-2.5 0-4.5-.7-5.9-2.1-1.5-1.4-2-3.1-1.4-5 .6-2 2.2-3.2 5-3.6l5.4-.8c3-.5 5.3-1.3 7-2.6 2.2-1.6 3.5-3.8 4.1-6.6.5-2.6 0-4.8-1.5-6.6-1.6-1.8-4.1-2.8-7.5-3l-.6.1-4.2-3.2 1.6 5.8-.8.7c-4.8 3.9-7 7.7-6.5 11.4.3 2.4 1.8 4 4.4 4.9l1.8.6-1.7 1c-4.1 2.3-6.4 5.9-6.8 10.8h-3Z"
    />
    <path
      fill="#120a07"
      d="M38.5 28.4c.9 0 1.6-.7 1.6-1.6s-.7-1.6-1.6-1.6-1.6.7-1.6 1.6.7 1.6 1.6 1.6Z"
    />
    <path
      fill="#d99b52"
      opacity=".75"
      d="M26.3 55.8h18.2c1.1 0 2 .8 2 1.9s-.9 1.9-2 1.9H26.3c-1.1 0-2-.8-2-1.9s.9-1.9 2-1.9Z"
    />
  </g>
</svg>
