<svg xmlns="http://www.w3.org/2000/svg" viewBox="0 0 64 64">
  <rect width="64" height="64" rx="14" fill="#090a0d"/>
  <path fill="#f0c15a" d="M45.5 52H18.2c-1.6 0-2.7-1.1-2.7-2.6 0-1.4 1.1-2.5 2.7-2.5h2.1c.2-5.8 2.5-10 6.9-12.8-2.3-2-3.3-4.5-3-7.6.3-3.5 2-6.5 5.1-9.1l-2.1-5.2c-.3-.8-.1-1.5.5-2 .6-.4 1.3-.4 2 .1l5.6 4.1c1.3-.4 2.8-.6 4.4-.6 4.1 0 7.3 1.3 9.5 3.9 2.1 2.5 2.8 5.7 2.1 9.4-.5 2.7-1.8 5-3.9 6.8-1.8 1.6-4 2.5-6.6 2.9l-5.6.8c-1.4.2-2.2.8-2.5 1.8-.2.8 0 1.6.6 2.2.6.6 1.7 1 3.1 1h2.1c1.7 0 3 .5 4 1.4 1 .9 1.5 2.1 1.6 3.5h1.5c1.6 0 2.7 1.1 2.7 2.5 0 1.5-1.1 2.6-2.8 2.6ZM31 28.1c.9 0 1.6-.7 1.6-1.6 0-.9-.7-1.6-1.6-1.6-.9 0-1.6.7-1.6 1.6 0 .9.7 1.6 1.6 1.6Z"/>
  <path fill="#f5f2e8" d="M20 55.8h24c1.2 0 2.2.9 2.2 2.1 0 1.2-1 2.1-2.2 2.1H20c-1.2 0-2.2-.9-2.2-2.1 0-1.2 1-2.1 2.2-2.1Z"/>
</svg>
